<?xml version="1.0" standalone="no"?>
<!DOCTYPE svg PUBLIC "-//W3C//DTD SVG 20010904//EN"
 "http://www.w3.org/TR/2001/REC-SVG-20010904/DTD/svg10.dtd">
<svg version="1.0" xmlns="http://www.w3.org/2000/svg"
 width="400.000000pt" height="323.000000pt" viewBox="0 0 400.000000 323.000000"
 preserveAspectRatio="xMidYMid meet">
<metadata>
Created by potrace 1.13, written by Peter Selinger 2001-2015
</metadata>
<g transform="translate(0.000000,323.000000) scale(0.100000,-0.100000)"
fill="#000000" stroke="none">
<path d="M1421 2707 c-8 -10 -7 -35 3 -93 15 -82 14 -94 -9 -94 -16 0 -21 14
-30 76 -12 78 -16 80 -70 32 -49 -44 -95 -123 -95 -168 0 -29 -8 -41 -35 -56
-26 -15 -30 -38 -10 -58 14 -14 54 -16 324 -16 293 0 309 1 326 20 21 24 14
47 -20 60 -20 8 -25 16 -25 43 0 46 -44 129 -91 171 -55 50 -65 47 -74 -21 -8
-69 -13 -83 -30 -83 -24 0 -25 16 -10 96 11 57 12 81 4 91 -15 18 -142 18
-158 0z"/>
<path d="M1220 2266 c0 -37 35 -140 64 -190 50 -86 142 -146 222 -146 79 0
180 82 228 185 26 55 53 162 43 171 -13 13 -37 -7 -37 -31 0 -79 -77 -211
-148 -252 -142 -83 -291 31 -337 260 -7 34 -35 37 -35 3z"/>
<path d="M1199 1956 c-98 -26 -192 -107 -235 -201 -76 -165 -39 -310 89 -351
43 -14 110 -18 377 -21 343 -5 481 3 543 33 32 15 37 23 37 51 l0 33 -65 0
-65 0 0 70 0 70 -70 0 -70 0 0 80 0 79 68 3 67 3 3 61 3 61 -43 16 c-24 8 -57
18 -73 22 -29 5 -32 3 -59 -52 -15 -32 -55 -100 -89 -152 l-62 -95 -9 73 c-7
65 -6 75 11 94 41 45 39 48 -29 41 -37 -3 -74 -1 -90 5 -35 13 -35 1 -3 -38
25 -29 26 -33 17 -103 l-8 -73 -62 95 c-35 52 -75 121 -90 152 -30 63 -27 62
-93 44z"/>
<path d="M1910 1870 l0 -50 115 0 115 0 0 50 0 50 -115 0 -115 0 0 -50z"/>
<path d="M2180 1870 l0 -50 115 0 115 0 0 50 0 50 -115 0 -115 0 0 -50z"/>
<path d="M1770 1725 l0 -55 115 0 115 0 0 55 0 55 -115 0 -115 0 0 -55z"/>
<path d="M2040 1725 l0 -55 120 0 120 0 0 55 0 55 -120 0 -120 0 0 -55z"/>
<path d="M2320 1725 l0 -55 115 0 115 0 0 55 0 55 -115 0 -115 0 0 -55z"/>
<path d="M1910 1580 l0 -50 115 0 115 0 0 50 0 50 -115 0 -115 0 0 -50z"/>
<path d="M2180 1580 l0 -50 115 0 115 0 0 50 0 50 -115 0 -115 0 0 -50z"/>
<path d="M3059 1597 c-72 -48 -144 -246 -170 -468 -13 -109 -23 -130 -72 -155
-55 -29 -60 4 -22 147 36 138 33 154 -29 142 -36 -7 -50 -32 -72 -125 -16 -71
-21 -79 -60 -108 -24 -17 -60 -38 -80 -46 -32 -14 -38 -13 -60 1 -22 14 -24
22 -24 102 0 77 3 90 26 120 26 34 27 34 97 33 40 -1 78 -1 85 -1 7 1 12 14
12 31 l0 30 -60 0 c-33 0 -60 2 -60 4 0 2 13 33 30 68 33 70 38 120 15 173
-17 41 -53 59 -90 45 -35 -13 -81 -91 -112 -187 l-25 -83 -37 0 c-60 0 -82
-10 -79 -34 2 -17 13 -22 53 -29 l50 -8 -2 -105 c-1 -114 -5 -123 -62 -157
-31 -18 -31 -18 -42 7 -9 19 -8 47 5 125 18 104 14 132 -20 145 -30 11 -68
-18 -105 -82 -47 -80 -48 -81 -38 -30 12 64 11 85 -7 102 -43 43 -78 3 -95
-109 -12 -85 -14 -88 -53 -117 -76 -55 -142 -72 -166 -43 -10 12 -9 16 6 22
81 29 134 93 134 158 0 51 -21 82 -65 94 -101 28 -185 -52 -201 -192 -6 -51
-11 -60 -36 -73 -16 -8 -33 -12 -38 -9 -13 8 -13 65 1 160 12 87 7 111 -24
119 -32 8 -61 -16 -103 -84 -20 -33 -38 -59 -40 -57 -2 1 2 23 7 47 12 54 5
87 -21 95 -30 10 -56 -10 -96 -75 -20 -33 -39 -60 -41 -60 -3 0 -2 26 2 58 8
70 -8 92 -53 76 -23 -8 -29 -19 -44 -79 -9 -39 -19 -87 -23 -108 -5 -32 -13
-41 -58 -67 -66 -38 -114 -48 -134 -28 -13 14 -8 19 40 46 94 53 127 149 72
204 -84 84 -219 4 -241 -144 -8 -52 -16 -63 -73 -100 -53 -33 -74 -35 -101 -8
-40 40 -15 189 33 198 12 3 17 -3 17 -21 0 -43 10 -57 41 -57 33 0 49 23 49
72 0 46 -23 75 -68 88 -78 20 -147 -24 -182 -117 -25 -67 -25 -126 -1 -180 23
-50 57 -74 115 -80 51 -6 117 20 156 62 l23 25 17 -28 c40 -66 141 -79 238
-31 l49 25 11 -28 c7 -20 17 -28 35 -28 33 0 54 27 101 134 21 47 41 85 43 83
2 -2 -2 -38 -8 -80 -13 -91 -2 -137 35 -137 38 0 54 22 92 120 20 52 37 96 38
97 1 1 1 -35 1 -81 0 -109 18 -141 77 -133 22 3 58 17 80 32 l40 27 30 -29
c26 -25 36 -28 96 -28 54 0 76 5 116 28 27 15 50 26 51 25 28 -50 38 -59 63
-56 23 3 35 18 82 110 l55 107 0 -89 c0 -78 3 -92 22 -111 28 -29 74 -20 143
26 27 18 50 30 50 25 0 -5 14 -22 31 -39 40 -41 80 -40 161 2 l63 33 20 -30
c26 -40 76 -46 141 -17 26 12 47 21 48 21 1 0 2 -32 2 -70 3 -165 63 -242 153
-195 57 29 101 179 81 270 -6 26 -18 61 -26 77 -9 16 -14 31 -12 33 2 1 22 5
46 9 l42 6 0 -45 c0 -100 72 -152 153 -111 15 8 27 13 27 10 0 -3 -35 -40 -78
-82 -102 -100 -144 -162 -150 -221 -6 -63 19 -86 92 -86 107 2 180 97 220 287
4 18 26 41 68 71 102 72 111 86 103 146 -4 28 -11 51 -16 51 -5 0 -9 -4 -9 -9
0 -12 -109 -131 -120 -131 -4 0 5 68 19 151 22 130 23 151 11 159 -18 11 -48
4 -72 -17 -9 -8 -26 -56 -38 -106 -12 -50 -28 -103 -35 -118 -16 -30 -44 -44
-58 -30 -16 16 -9 114 14 186 11 37 18 73 15 81 -3 8 -19 14 -35 14 -35 0 -66
-29 -81 -76 -8 -23 -20 -36 -42 -43 -31 -11 -108 -15 -108 -6 0 2 20 35 44 72
86 135 136 255 136 330 0 84 -77 120 -151 70z"/>
<path d="M2040 1435 l0 -55 120 0 120 0 0 55 0 55 -120 0 -120 0 0 -55z"/>
<path d="M2760 1420 c-43 -43 -13 -110 51 -110 62 0 103 75 63 114 -23 23 -89
21 -114 -4z"/>
</g>
</svg>
