<?xml version="1.0" encoding="UTF-8" standalone="no"?>
<svg width="66px" height="36px" viewBox="0 0 66 36" version="1.1" xmlns="http://www.w3.org/2000/svg" xmlns:xlink="http://www.w3.org/1999/xlink" xmlns:sketch="http://www.bohemiancoding.com/sketch/ns">
    <!-- Generator: Sketch 3.3.3 (12072) - http://www.bohemiancoding.com/sketch -->
    <title>arrow</title>
    <desc>Created with Sketch.</desc>
    <defs></defs>
    <g id="Page-1" stroke="none" stroke-width="1" fill="none" fill-rule="evenodd" sketch:type="MSPage">
        <g id="Icons" sketch:type="MSArtboardGroup" transform="translate(-515.000000, -200.000000)" fill="#000000">
            <path d="M580.5815,233.4695 L580.5845,233.465 L549.086,200.465 L549.0815,200.4695 C548.807,200.1815 548.4275,200 548,200 C547.5725,200 547.193,200.1815 546.9185,200.4695 L546.9155,200.465 L515.4155,233.465 L515.4185,233.4695 C515.162,233.738 515,234.098 515,234.5 C515,235.3295 515.6705,236 516.5,236 L579.5,236 C580.3295,236 581,235.3295 581,234.5 C581,234.098 580.838,233.738 580.5815,233.4695 L580.5815,233.4695 Z M520.0055,233 L548,203.672 L575.9945,233 L520.0055,233 L520.0055,233 Z" id="arrow" sketch:type="MSShapeGroup"></path>
        </g>
    </g>
</svg>