<?xml version="1.0" encoding="UTF-8" standalone="no"?>
<svg width="36px" height="36px" viewBox="0 0 36 36" version="1.1" xmlns="http://www.w3.org/2000/svg" xmlns:xlink="http://www.w3.org/1999/xlink" xmlns:sketch="http://www.bohemiancoding.com/sketch/ns">
    <!-- Generator: Sketch 3.3.3 (12072) - http://www.bohemiancoding.com/sketch -->
    <title>close</title>
    <desc>Created with Sketch.</desc>
    <defs></defs>
    <g id="Page-1" stroke="none" stroke-width="1" fill="none" fill-rule="evenodd" sketch:type="MSPage">
        <g id="Icons" sketch:type="MSArtboardGroup" transform="translate(-63.000000, -200.000000)" fill="#000000">
            <path d="M82.414,218 L98.707,201.707 C98.889,201.526 99,201.276 99,201 C99,200.448 98.553,200 98,200 C97.724,200 97.474,200.112 97.293,200.293 L81,216.586 L64.707,200.293 C64.526,200.112 64.276,200 64,200 C63.447,200 63,200.448 63,201 C63,201.276 63.111,201.526 63.293,201.708 L79.586,218 L63.293,234.293 C63.111,234.474 63,234.724 63,235 C63,235.553 63.447,236 64,236 C64.276,236 64.526,235.888 64.707,235.707 L81,219.414 L97.293,235.707 C97.474,235.888 97.724,236 98,236 C98.553,236 99,235.553 99,235 C99,234.724 98.889,234.474 98.707,234.293 L82.414,218" id="close" sketch:type="MSShapeGroup"></path>
        </g>
    </g>
</svg>