<?xml version="1.0" encoding="UTF-8" standalone="no"?>
<svg width="36px" height="36px" viewBox="0 0 36 36" version="1.1" xmlns="http://www.w3.org/2000/svg" xmlns:xlink="http://www.w3.org/1999/xlink" xmlns:sketch="http://www.bohemiancoding.com/sketch/ns">
    <!-- Generator: Sketch 3.3.3 (12072) - http://www.bohemiancoding.com/sketch -->
    <title>facebook</title>
    <desc>Created with Sketch.</desc>
    <defs></defs>
    <g id="Page-1" stroke="none" stroke-width="1" fill="none" fill-rule="evenodd" sketch:type="MSPage">
        <g id="Icons" sketch:type="MSArtboardGroup" transform="translate(-515.000000, -114.000000)" fill="#000000">
            <path d="M533,114 C523.059091,114 515,122.059091 515,132 C515,141.940909 523.059091,150 533,150 C542.940909,150 551,141.940909 551,132 C551,122.059091 542.940909,114 533,114 L533,114 Z M533,148.363636 C523.962364,148.363636 516.636364,141.037636 516.636364,132 C516.636364,122.963182 523.962364,115.636364 533,115.636364 C542.037636,115.636364 549.363636,122.963182 549.363636,132 C549.363636,141.037636 542.037636,148.363636 533,148.363636 L533,148.363636 Z M534.626545,128.113636 C534.626545,127.451727 534.694455,127.097455 535.713091,127.097455 L537.073727,127.097455 L537.073727,124.634727 L534.895727,124.634727 C532.280818,124.634727 531.359545,125.866909 531.359545,127.937727 L531.359545,129.537273 L529.728909,129.537273 L529.728909,132 L531.359545,132 L531.359545,139.365273 L534.622455,139.365273 L534.622455,132 L536.801273,132 L537.090091,129.537273 L534.622455,129.537273 L534.626545,128.113636 L534.626545,128.113636 Z" id="facebook" sketch:type="MSShapeGroup"></path>
        </g>
    </g>
</svg>