<?xml version="1.0" encoding="UTF-8" standalone="no"?>
<svg width="36px" height="36px" viewBox="0 0 36 36" version="1.1" xmlns="http://www.w3.org/2000/svg" xmlns:xlink="http://www.w3.org/1999/xlink" xmlns:sketch="http://www.bohemiancoding.com/sketch/ns">
    <!-- Generator: Sketch 3.3.3 (12072) - http://www.bohemiancoding.com/sketch -->
    <title>google+</title>
    <desc>Created with Sketch.</desc>
    <defs></defs>
    <g id="Page-1" stroke="none" stroke-width="1" fill="none" fill-rule="evenodd" sketch:type="MSPage">
        <g id="Icons" sketch:type="MSArtboardGroup" transform="translate(-258.000000, -114.000000)" fill="#000000">
            <path d="M276,114 C266.059091,114 258,122.059091 258,132 C258,141.940909 266.059091,150 276,150 C285.940909,150 294,141.940909 294,132 C294,122.059091 285.940909,114 276,114 L276,114 Z M276,148.363636 C266.962364,148.363636 259.636364,141.037636 259.636364,132 C259.636364,122.963182 266.962364,115.636364 276,115.636364 C285.037636,115.636364 292.363636,122.963182 292.363636,132 C292.363636,141.037636 285.037636,148.363636 276,148.363636 L276,148.363636 Z M282.541364,126.265364 L280.903364,126.265364 L280.903364,128.721545 L278.441455,128.721545 L278.441455,130.359545 L280.903364,130.359545 L280.903364,132.805091 L282.541364,132.805091 L282.541364,130.359545 L285.007364,130.359545 L285.007364,128.721545 L282.541364,128.721545 L282.541364,126.265364 L282.541364,126.265364 Z M276.063,132.660273 C275.644091,132.348545 275.251364,131.886273 275.236636,131.743909 C275.236636,131.498455 275.236636,131.385545 275.814273,130.912636 C276.563727,130.299 276.976091,129.492273 276.976091,128.639727 C276.976091,127.903364 276.770727,127.244727 276.415636,126.766091 L276.729818,126.766091 L278.460273,125.455364 L273.772091,125.455364 C271.891091,125.455364 270.241636,126.932182 270.241636,128.615182 C270.241636,130.353818 271.515545,131.675182 273.228,131.746364 C273.201818,131.869909 273.187909,131.991818 273.187909,132.112091 C273.187909,132.363273 273.244364,132.603 273.359727,132.834545 C271.236545,132.848455 269.448818,134.268 269.448818,135.945273 C269.448818,137.451545 271.170273,138.544636 273.541364,138.544636 C276.102273,138.544636 277.483364,136.942636 277.483364,135.433909 C277.483364,134.179636 277.098,133.426909 276.063,132.660273 L276.063,132.660273 Z M272.236364,128.564455 C272.157,127.936909 272.289545,127.356 272.590636,127.009091 C272.773909,126.799636 273.009545,126.687545 273.273,126.687545 L273.273,126.348 L273.303273,126.688364 C274.088727,126.712909 274.842273,127.641545 274.981364,128.758364 C275.062364,129.397364 274.924909,129.992182 274.615636,130.348091 C274.433182,130.558364 274.201636,130.669636 273.916091,130.668818 L273.914455,130.668818 C273.144545,130.645909 272.376273,129.681273 272.236364,128.564455 L272.236364,128.564455 Z M273.534,137.242909 C272.365636,137.242909 271.450909,136.491 271.450909,135.532091 C271.450909,134.652545 272.521909,133.881 273.743455,133.881 L273.743455,133.539 L273.775364,133.881 C274.039636,133.883455 274.294909,133.924364 274.536273,134.000455 L274.778455,134.173909 C275.399455,134.617364 275.727545,134.868545 275.825727,135.272727 C275.850273,135.378273 275.861727,135.485455 275.861727,135.591 C275.861727,136.686545 275.078727,137.242909 273.534,137.242909 L273.534,137.242909 Z" id="google+" sketch:type="MSShapeGroup"></path>
        </g>
    </g>
</svg>