<?xml version="1.0" encoding="UTF-8" standalone="no"?>
<svg width="36px" height="36px" viewBox="0 0 36 36" version="1.1" xmlns="http://www.w3.org/2000/svg" xmlns:xlink="http://www.w3.org/1999/xlink" xmlns:sketch="http://www.bohemiancoding.com/sketch/ns">
    <!-- Generator: Sketch 3.3.3 (12072) - http://www.bohemiancoding.com/sketch -->
    <title>info</title>
    <desc>Created with Sketch.</desc>
    <defs></defs>
    <g id="Page-1" stroke="none" stroke-width="1" fill="none" fill-rule="evenodd" sketch:type="MSPage">
        <g id="Icons" sketch:type="MSArtboardGroup" transform="translate(-424.000000, -200.000000)" fill="#000000">
            <path d="M444.403818,225.379182 C443.903091,225.379182 443.550455,225.299 443.346727,225.138636 C443.143818,224.978273 443.041545,224.678 443.041545,224.236182 C443.041545,224.060273 443.073455,223.801727 443.136455,223.458909 C443.198636,223.116909 443.269818,222.811727 443.348364,222.545 L444.315455,219.219909 C444.409545,218.915545 444.474182,218.580091 444.509364,218.215182 C444.544545,217.848636 444.562545,217.594182 444.562545,217.448545 C444.562545,216.748182 444.308909,216.179545 443.803273,215.740182 C443.296818,215.302455 442.576818,215.084 441.643273,215.084 C441.125364,215.084 440.575545,215.173182 439.994636,215.352364 C439.413727,215.530727 438.805818,215.746727 438.170091,215.997909 L437.911545,217.026364 C438.099727,216.957636 438.325545,216.885636 438.589818,216.808727 C438.852455,216.732636 439.110182,216.695 439.361364,216.695 C439.872727,216.695 440.218,216.779273 440.399636,216.946182 C440.579636,217.113909 440.670455,217.410909 440.670455,217.838 C440.670455,218.073636 440.641,218.334636 440.582091,218.620182 C440.523182,218.904909 440.450364,219.209273 440.363636,219.528364 L439.393273,222.864909 C439.306545,223.215091 439.243545,223.530091 439.205091,223.808273 C439.165818,224.085636 439.146182,224.358909 439.146182,224.624818 C439.146182,225.310455 439.406364,225.875818 439.927545,226.321727 C440.449545,226.766818 441.180182,226.989364 442.121091,226.989364 C442.732273,226.989364 443.269,226.911636 443.731273,226.755364 C444.194364,226.599909 444.813727,226.372455 445.589364,226.075455 L445.847909,225.047 C445.715364,225.108364 445.499364,225.178727 445.202364,225.258909 C444.904545,225.339091 444.638636,225.379182 444.403818,225.379182 L444.403818,225.379182 Z M442,200 C432.059091,200 424,208.059909 424,218 C424,227.940909 432.059091,236 442,236 C451.940909,236 460,227.940909 460,218 C460,208.059909 451.940909,200 442,200 L442,200 Z M442,234.363636 C432.962364,234.363636 425.636364,227.037636 425.636364,218 C425.636364,208.962364 432.962364,201.636364 442,201.636364 C451.037636,201.636364 458.363636,208.962364 458.363636,218 C458.363636,227.037636 451.037636,234.363636 442,234.363636 L442,234.363636 Z M443.791,208.993455 C443.155273,208.993455 442.610364,209.198818 442.156273,209.610364 C441.701364,210.021909 441.473909,210.517727 441.473909,211.095364 C441.473909,211.675455 441.701364,212.168 442.156273,212.575455 C442.610364,212.982909 443.155273,213.186636 443.791,213.186636 C444.425091,213.186636 444.968364,212.982909 445.419182,212.575455 C445.87,212.168 446.095,211.675455 446.095,211.095364 C446.095,210.517727 445.87,210.021909 445.419182,209.610364 C444.968364,209.198818 444.425091,208.993455 443.791,208.993455 L443.791,208.993455 Z" id="info" sketch:type="MSShapeGroup"></path>
        </g>
    </g>
</svg>