<?xml version="1.0" encoding="UTF-8" standalone="no"?>
<svg width="36px" height="36px" viewBox="0 0 36 36" version="1.1" xmlns="http://www.w3.org/2000/svg" xmlns:xlink="http://www.w3.org/1999/xlink" xmlns:sketch="http://www.bohemiancoding.com/sketch/ns">
    <!-- Generator: Sketch 3.3.3 (12072) - http://www.bohemiancoding.com/sketch -->
    <title>instagram</title>
    <desc>Created with Sketch.</desc>
    <defs></defs>
    <g id="Page-1" stroke="none" stroke-width="1" fill="none" fill-rule="evenodd" sketch:type="MSPage">
        <g id="Icons" sketch:type="MSArtboardGroup" transform="translate(-383.000000, -114.000000)" fill="#000000">
            <path d="M405.909091,123.818182 L396.090909,123.818182 C394.283545,123.818182 392.818182,125.283545 392.818182,127.090909 L392.818182,136.909091 C392.818182,138.716455 394.283545,140.181818 396.090909,140.181818 L405.909091,140.181818 C407.716455,140.181818 409.181818,138.716455 409.181818,136.909091 L409.181818,127.090909 C409.181818,125.283545 407.716455,123.818182 405.909091,123.818182 L405.909091,123.818182 Z M404.272727,126.272727 L406.727273,126.272727 L406.727273,128.727273 L404.272727,128.727273 L404.272727,126.272727 Z M401,128.727273 C402.807364,128.727273 404.272727,130.192636 404.272727,132 C404.272727,133.807364 402.807364,135.272727 401,135.272727 C399.192636,135.272727 397.727273,133.807364 397.727273,132 C397.727273,130.192636 399.192636,128.727273 401,128.727273 L401,128.727273 Z M407.545455,136.909091 C407.545455,137.812364 406.812364,138.545455 405.909091,138.545455 L396.090909,138.545455 C395.186818,138.545455 394.454545,137.812364 394.454545,136.909091 L394.454545,131.181818 L396.173545,131.181818 C396.128545,131.449364 396.090909,131.720182 396.090909,132 C396.090909,134.712273 398.288545,136.909091 401,136.909091 C403.710636,136.909091 405.909091,134.712273 405.909091,132 C405.909091,131.720182 405.872273,131.449364 405.826455,131.181818 L407.545455,131.181818 L407.545455,136.909091 L407.545455,136.909091 Z M401,114 C391.059091,114 383,122.059091 383,132 C383,141.940909 391.059091,150 401,150 C410.940909,150 419,141.940909 419,132 C419,122.059091 410.940909,114 401,114 L401,114 Z M401,148.363636 C391.962364,148.363636 384.636364,141.037636 384.636364,132 C384.636364,122.963182 391.962364,115.636364 401,115.636364 C410.037636,115.636364 417.363636,122.963182 417.363636,132 C417.363636,141.037636 410.037636,148.363636 401,148.363636 L401,148.363636 Z" id="instagram" sketch:type="MSShapeGroup"></path>
        </g>
    </g>
</svg>