<?xml version="1.0" encoding="UTF-8" standalone="no"?>
<svg width="36px" height="36px" viewBox="0 0 36 36" version="1.1" xmlns="http://www.w3.org/2000/svg" xmlns:xlink="http://www.w3.org/1999/xlink" xmlns:sketch="http://www.bohemiancoding.com/sketch/ns">
    <!-- Generator: Sketch 3.3.3 (12072) - http://www.bohemiancoding.com/sketch -->
    <title>linkedin</title>
    <desc>Created with Sketch.</desc>
    <defs></defs>
    <g id="Page-1" stroke="none" stroke-width="1" fill="none" fill-rule="evenodd" sketch:type="MSPage">
        <g id="Icons" sketch:type="MSArtboardGroup" transform="translate(-453.000000, -114.000000)" fill="#000000">
            <path d="M466.085182,125.454545 C465.184364,125.454545 464.454545,126.188455 464.454545,127.093364 C464.454545,127.997455 465.184364,128.732182 466.085182,128.732182 C466.985182,128.732182 467.715,127.997455 467.715,127.093364 C467.715,126.188455 466.985182,125.454545 466.085182,125.454545 L466.085182,125.454545 Z M464.454545,138.545455 L467.715,138.545455 L467.715,129.533182 L464.454545,129.533182 L464.454545,138.545455 Z M471,114 C461.059091,114 453,122.059091 453,132 C453,141.940909 461.059091,150 471,150 C480.940909,150 489,141.940909 489,132 C489,122.059091 480.940909,114 471,114 L471,114 Z M471,148.363636 C461.962364,148.363636 454.636364,141.037636 454.636364,132 C454.636364,122.963182 461.962364,115.636364 471,115.636364 C480.037636,115.636364 487.363636,122.963182 487.363636,132 C487.363636,141.037636 480.037636,148.363636 471,148.363636 L471,148.363636 Z M475.383,129.533182 C472.957909,129.533182 472.633091,130.993636 472.633091,130.993636 L472.636364,129.545455 L469.363636,129.545455 L469.363636,138.545455 L472.636364,138.545455 L472.636364,133.636364 C472.636364,133.636364 472.636364,131.987727 474.027273,131.987727 C474.809455,131.987727 475.090909,132.72 475.090909,133.636364 L475.090909,138.545455 L478.363636,138.545455 L478.363636,133.636364 C478.363636,131.074636 477.250091,129.533182 475.383,129.533182 L475.383,129.533182 Z" id="linkedin" sketch:type="MSShapeGroup"></path>
        </g>
    </g>
</svg>