<?xml version="1.0" encoding="UTF-8" standalone="no"?>
<svg width="36px" height="36px" viewBox="0 0 36 36" version="1.1" xmlns="http://www.w3.org/2000/svg" xmlns:xlink="http://www.w3.org/1999/xlink" xmlns:sketch="http://www.bohemiancoding.com/sketch/ns">
    <!-- Generator: Sketch 3.3.3 (12072) - http://www.bohemiancoding.com/sketch -->
    <title>pinterest</title>
    <desc>Created with Sketch.</desc>
    <defs></defs>
    <g id="Page-1" stroke="none" stroke-width="1" fill="none" fill-rule="evenodd" sketch:type="MSPage">
        <g id="Icons" sketch:type="MSArtboardGroup" transform="translate(-128.000000, -114.000000)" fill="#000000">
            <path d="M145.787273,124.637182 C145.439545,124.680545 145.091,124.723909 144.742455,124.767273 C144.086273,124.929273 143.371182,125.083909 142.841,125.394 C141.425545,126.222 140.444545,127.188273 139.787545,128.760818 C139.681182,129.014455 139.677909,129.260727 139.600182,129.543 C139.096182,131.374909 139.989636,133.271455 141.073727,133.927636 C141.281545,134.053636 141.756091,134.277 141.930364,133.979182 C142.026909,133.815545 142.004818,133.596273 142.064545,133.405636 C142.103,133.278818 142.226545,133.040727 142.197909,132.883636 C142.149636,132.616091 141.863273,132.446727 141.743,132.231545 C141.498364,131.794636 141.486091,131.406818 141.367455,130.821818 C141.376455,130.744091 141.385455,130.665545 141.394455,130.587 C141.431273,129.932455 141.540909,129.461182 141.743,128.994818 C142.335364,127.627636 143.286909,126.867545 144.822636,126.411818 C145.166273,126.309545 146.136636,126.146727 146.644727,126.254727 C146.948273,126.307909 147.251818,126.358636 147.554545,126.411818 C148.655,126.757909 149.456,127.396909 149.885545,128.395091 C150.153091,129.016909 150.231636,130.207364 150.045909,131.004273 C149.957545,131.382273 149.971455,131.706273 149.858545,132.048273 C149.442091,133.314818 148.830909,134.488091 147.447364,134.814545 C146.535909,135.029727 145.851909,134.473364 145.626909,133.901455 C145.563909,133.742727 145.457545,133.461273 145.519727,133.196182 C145.761091,132.168545 146.108,131.248091 146.376364,130.221273 C146.632455,129.243545 146.147273,128.472 145.385545,128.291182 C144.438091,128.065364 143.706636,128.943273 143.457091,129.516818 C143.258273,129.972545 143.138818,130.814455 143.295909,131.422364 C143.345818,131.614636 143.579,132.130091 143.537273,132.309273 C143.354818,133.102909 143.147,133.956273 142.921182,134.736818 C142.686364,135.547636 142.559545,136.378909 142.332091,137.162727 C142.227364,137.523545 142.231455,137.908909 142.144727,138.285273 L142.144727,138.833455 C142.066182,139.179545 142.124273,139.795636 142.197909,140.137636 C142.245364,140.357727 142.170091,140.629364 142.278091,140.790545 C142.280545,140.907545 142.295273,140.932909 142.332091,140.999182 C142.667545,140.989364 143.129,140.108182 143.295909,139.851273 C143.615,139.360364 143.910364,138.834273 144.153364,138.259091 C144.372636,137.742 144.407,137.167636 144.582091,136.615364 C144.708091,136.215273 144.888091,135.748909 144.929818,135.310364 L144.956818,135.310364 C145.026364,135.550909 145.278364,135.725182 145.465727,135.857727 C146.054818,136.277455 147.068545,136.666091 148.170636,136.406727 C149.417545,136.111364 150.41,135.526364 151.063727,134.657455 C151.545636,134.018455 151.908909,133.278 152.188727,132.439364 C152.326182,132.027818 152.354818,131.572091 152.457091,131.135182 C152.711545,130.039636 152.372,128.720727 152.054545,128.003182 C151.093182,125.830091 149.050182,124.590545 145.787273,124.637182 L145.787273,124.637182 Z M146,114 C136.059091,114 128,122.059091 128,132 C128,141.940909 136.059091,150 146,150 C155.940909,150 164,141.940909 164,132 C164,122.059091 155.940909,114 146,114 L146,114 Z M146,148.363636 C136.962364,148.363636 129.636364,141.037636 129.636364,132 C129.636364,122.963182 136.962364,115.636364 146,115.636364 C155.037636,115.636364 162.363636,122.963182 162.363636,132 C162.363636,141.037636 155.037636,148.363636 146,148.363636 L146,148.363636 Z" id="pinterest" sketch:type="MSShapeGroup"></path>
        </g>
    </g>
</svg>