<?xml version="1.0" encoding="UTF-8" standalone="no"?>
<svg width="36px" height="36px" viewBox="0 0 36 36" version="1.1" xmlns="http://www.w3.org/2000/svg" xmlns:xlink="http://www.w3.org/1999/xlink" xmlns:sketch="http://www.bohemiancoding.com/sketch/ns">
    <!-- Generator: Sketch 3.3.3 (12072) - http://www.bohemiancoding.com/sketch -->
    <title>search</title>
    <desc>Created with Sketch.</desc>
    <defs></defs>
    <g id="Page-1" stroke="none" stroke-width="1" fill="none" fill-rule="evenodd" sketch:type="MSPage">
        <g id="Icons" sketch:type="MSArtboardGroup" transform="translate(-154.000000, -200.000000)" fill="#000000">
            <path d="M189.760273,234.603364 L181.088364,225.931455 C183.569091,223.177455 185.090909,219.543909 185.090909,215.545455 C185.090909,206.960273 178.131455,200 169.545455,200 C160.960273,200 154,206.960273 154,215.545455 C154,224.131455 160.960273,231.090909 169.545455,231.090909 C173.543909,231.090909 177.177455,229.569091 179.931455,227.088364 L188.603364,235.760273 C188.751455,235.909182 188.956,236 189.181818,236 C189.634273,236 190,235.634273 190,235.181818 C190,234.956818 189.909182,234.752273 189.760273,234.603364 L189.760273,234.603364 Z M169.545455,229.455364 C161.863545,229.455364 155.636364,223.227364 155.636364,215.545455 C155.636364,207.863545 161.863545,201.636364 169.545455,201.636364 C177.227364,201.636364 183.454545,207.863545 183.454545,215.545455 C183.454545,223.227364 177.227364,229.455364 169.545455,229.455364 L169.545455,229.455364 Z" id="search" sketch:type="MSShapeGroup"></path>
        </g>
    </g>
</svg>