<?xml version="1.0" encoding="UTF-8" standalone="no"?>
<svg width="33px" height="36px" viewBox="0 0 33 36" version="1.1" xmlns="http://www.w3.org/2000/svg" xmlns:xlink="http://www.w3.org/1999/xlink" xmlns:sketch="http://www.bohemiancoding.com/sketch/ns">
    <!-- Generator: Sketch 3.3.3 (12072) - http://www.bohemiancoding.com/sketch -->
    <title>socials</title>
    <desc>Created with Sketch.</desc>
    <defs></defs>
    <g id="Page-1" stroke="none" stroke-width="1" fill="none" fill-rule="evenodd" sketch:type="MSPage">
        <g id="Icons" sketch:type="MSArtboardGroup" transform="translate(-336.000000, -200.000000)" fill="#000000">
            <path d="M364.632273,227.818182 C363.404182,227.818182 362.316,228.371273 361.566545,229.227909 L343.957636,219.248545 C344.086091,218.851727 344.173636,218.436091 344.173636,217.995909 C344.173636,217.556545 344.086091,217.140091 343.957636,216.743273 L361.566545,206.764727 C362.316,207.621364 363.404182,208.174455 364.632273,208.174455 C366.889636,208.174455 368.719091,206.344182 368.719091,204.086818 C368.719091,201.829455 366.889636,200 364.632273,200 C362.374909,200 360.545455,201.829455 360.545455,204.086818 C360.545455,204.527 360.633,204.943455 360.761455,205.339455 L343.152545,215.318 C342.403091,214.462182 341.314091,213.909091 340.086818,213.909091 C337.829455,213.909091 336,215.738545 336,217.995909 C336,220.253273 337.829455,222.083545 340.086818,222.083545 C341.314091,222.083545 342.403091,221.530455 343.152545,220.673 L360.761455,230.652364 C360.633,231.049182 360.545455,231.465636 360.545455,231.905 C360.545455,234.162364 362.374909,235.992636 364.632273,235.992636 C366.889636,235.992636 368.719091,234.162364 368.719091,231.905 C368.719091,229.647636 366.889636,227.818182 364.632273,227.818182 L364.632273,227.818182 Z M364.639636,201.624909 C365.995364,201.624909 367.094182,202.723727 367.094182,204.079455 C367.094182,205.435182 365.995364,206.534 364.639636,206.534 C363.283909,206.534 362.185091,205.435182 362.185091,204.079455 C362.185091,202.723727 363.283909,201.624909 364.639636,201.624909 L364.639636,201.624909 Z M340.094182,220.443909 C338.738455,220.443909 337.639636,219.344273 337.639636,217.988545 C337.639636,216.632818 338.738455,215.534 340.094182,215.534 C341.449909,215.534 342.548727,216.632818 342.548727,217.988545 C342.548727,219.344273 341.449909,220.443909 340.094182,220.443909 L340.094182,220.443909 Z M364.639636,234.352182 C363.283909,234.352182 362.185091,233.253364 362.185091,231.898455 C362.185091,230.541909 363.283909,229.443091 364.639636,229.443091 C365.995364,229.443091 367.094182,230.541909 367.094182,231.898455 C367.094182,233.253364 365.995364,234.352182 364.639636,234.352182 L364.639636,234.352182 Z" id="socials" sketch:type="MSShapeGroup"></path>
        </g>
    </g>
</svg>