<?xml version="1.0" encoding="UTF-8" standalone="no"?>
<svg width="36px" height="36px" viewBox="0 0 36 36" version="1.1" xmlns="http://www.w3.org/2000/svg" xmlns:xlink="http://www.w3.org/1999/xlink" xmlns:sketch="http://www.bohemiancoding.com/sketch/ns">
    <!-- Generator: Sketch 3.3.3 (12072) - http://www.bohemiancoding.com/sketch -->
    <title>tag</title>
    <desc>Created with Sketch.</desc>
    <defs></defs>
    <g id="Page-1" stroke="none" stroke-width="1" fill="none" fill-rule="evenodd" sketch:type="MSPage">
        <g id="Icons" sketch:type="MSArtboardGroup" transform="translate(-245.000000, -200.000000)" fill="#000000">
            <path d="M264.636364,222.090909 C264.862182,222.090909 265.066727,222.000091 265.214818,221.851182 L268.487545,218.578455 C268.636455,218.430364 268.727273,218.225818 268.727273,218 C268.727273,217.547545 268.361545,217.182636 267.909091,217.182636 C267.683273,217.182636 267.478727,217.273455 267.330636,217.421545 L264.057909,220.694273 C263.909,220.843182 263.818182,221.047727 263.818182,221.273545 C263.818182,221.725182 264.183909,222.090909 264.636364,222.090909 L264.636364,222.090909 Z M252.363636,204.909091 C251.008727,204.909091 249.909091,206.008727 249.909091,207.363636 C249.909091,208.719364 251.008727,209.818182 252.363636,209.818182 C253.718545,209.818182 254.818182,208.719364 254.818182,207.363636 C254.818182,206.008727 253.718545,204.909091 252.363636,204.909091 L252.363636,204.909091 Z M252.363636,208.181818 C251.911182,208.181818 251.545455,207.816091 251.545455,207.363636 C251.545455,206.912 251.911182,206.545455 252.363636,206.545455 C252.816091,206.545455 253.181818,206.912 253.181818,207.363636 C253.181818,207.816091 252.816091,208.181818 252.363636,208.181818 L252.363636,208.181818 Z M280.760273,218.239727 L262.760273,200.239727 C262.612182,200.091636 262.407636,200 262.181818,200 L247.454545,200 C246.099636,200 245,201.099636 245,202.454545 L245,217.182636 C245,217.407636 245.091636,217.612182 245.239727,217.760273 L263.239727,235.760273 C263.388636,235.909182 263.592364,236 263.818182,236 C264.044,236 264.248545,235.909182 264.396636,235.760273 L280.760273,219.396636 C280.909182,219.248545 281,219.044 281,218.818182 C281,218.593182 280.909182,218.388636 280.760273,218.239727 L280.760273,218.239727 Z M263.818182,234.024909 L246.636364,216.843091 L246.636364,202.454545 C246.636364,202.002909 247.002091,201.636364 247.454545,201.636364 L261.843091,201.636364 L279.024909,218.818182 L263.818182,234.024909 L263.818182,234.024909 Z M263.818182,229.454545 C264.044,229.454545 264.248545,229.363727 264.396636,229.214818 L269.305727,224.305727 C269.454636,224.157636 269.545455,223.953091 269.545455,223.727273 C269.545455,223.275636 269.179727,222.909091 268.727273,222.909091 C268.502273,222.909091 268.297727,223.000727 268.148818,223.148818 L263.239727,228.057909 C263.091636,228.206818 263,228.411364 263,228.637182 C263,229.088818 263.365727,229.454545 263.818182,229.454545 L263.818182,229.454545 Z M259.967,224.785182 C259.818909,224.934091 259.727273,225.138636 259.727273,225.363636 C259.727273,225.816091 260.093,226.181818 260.545455,226.181818 C260.771273,226.181818 260.975818,226.091 261.123909,225.942091 L262.760273,224.305727 C262.909182,224.157636 263,223.953091 263,223.727273 C263,223.275636 262.634273,222.909091 262.181818,222.909091 C261.956818,222.909091 261.752273,223.000727 261.603364,223.148818 L259.967,224.785182 L259.967,224.785182 Z" id="tag" sketch:type="MSShapeGroup"></path>
        </g>
    </g>
</svg>