<?xml version="1.0" encoding="UTF-8" standalone="no"?>
<svg width="36px" height="36px" viewBox="0 0 36 36" version="1.1" xmlns="http://www.w3.org/2000/svg" xmlns:xlink="http://www.w3.org/1999/xlink" xmlns:sketch="http://www.bohemiancoding.com/sketch/ns">
    <!-- Generator: Sketch 3.3.3 (12072) - http://www.bohemiancoding.com/sketch -->
    <title>twitter</title>
    <desc>Created with Sketch.</desc>
    <defs></defs>
    <g id="Page-1" stroke="none" stroke-width="1" fill="none" fill-rule="evenodd" sketch:type="MSPage">
        <g id="Icons" sketch:type="MSArtboardGroup" transform="translate(-319.000000, -114.000000)" fill="#000000">
            <path d="M345.547545,125.697545 C344.898727,126.076364 344.180364,126.351273 343.416182,126.499364 C342.804182,125.857091 341.931182,125.456182 340.965727,125.456182 C339.111727,125.456182 337.608727,126.935455 337.608727,128.76 C337.608727,129.018545 337.637364,129.270545 337.695455,129.513545 C334.904636,129.375273 332.431273,128.059636 330.776091,126.06 C330.486455,126.549273 330.321182,127.115455 330.321182,127.721727 C330.321182,128.868 330.913545,129.879273 331.814364,130.472455 C331.264545,130.454455 330.746636,130.306364 330.294182,130.058455 C330.293364,130.072364 330.293364,130.085455 330.293364,130.100182 C330.293364,131.701364 331.451091,133.036636 332.986818,133.341 C332.704545,133.416273 332.409182,133.455545 332.102364,133.455545 C331.886364,133.455545 331.675273,133.435091 331.470727,133.396636 C331.897818,134.709818 333.137364,135.664636 334.606,135.691636 C333.457273,136.578545 332.009909,137.105455 330.436545,137.105455 C330.165727,137.105455 329.899,137.090727 329.636364,137.060455 C331.122182,137.997273 332.887,138.544636 334.782727,138.544636 C340.958364,138.544636 344.335,133.510364 344.335,129.142909 C344.335,128.999727 344.331727,128.857364 344.325182,128.715818 C344.980545,128.249455 345.549182,127.667727 346,127.005818 C345.397818,127.268455 344.751455,127.446 344.072364,127.525364 C344.764545,127.116273 345.297182,126.469091 345.547545,125.697545 L345.547545,125.697545 Z M337,114 C327.059091,114 319,122.059091 319,132 C319,141.940909 327.059091,150 337,150 C346.940909,150 355,141.940909 355,132 C355,122.059091 346.940909,114 337,114 L337,114 Z M337,148.363636 C327.962364,148.363636 320.636364,141.037636 320.636364,132 C320.636364,122.963182 327.962364,115.636364 337,115.636364 C346.037636,115.636364 353.363636,122.963182 353.363636,132 C353.363636,141.037636 346.037636,148.363636 337,148.363636 L337,148.363636 Z" id="twitter" sketch:type="MSShapeGroup"></path>
        </g>
    </g>
</svg>