<?xml version="1.0" encoding="UTF-8" standalone="no"?>
<svg width="36px" height="36px" viewBox="0 0 36 36" version="1.1" xmlns="http://www.w3.org/2000/svg" xmlns:xlink="http://www.w3.org/1999/xlink" xmlns:sketch="http://www.bohemiancoding.com/sketch/ns">
    <!-- Generator: Sketch 3.3.3 (12072) - http://www.bohemiancoding.com/sketch -->
    <title>vimeo</title>
    <desc>Created with Sketch.</desc>
    <defs></defs>
    <g id="Page-1" stroke="none" stroke-width="1" fill="none" fill-rule="evenodd" sketch:type="MSPage">
        <g id="Icons" sketch:type="MSArtboardGroup" transform="translate(-193.000000, -114.000000)" fill="#000000">
            <path d="M216.801727,125.451273 C214.525545,125.383364 212.983273,126.561545 212.175727,128.986636 C212.591364,128.827909 212.995545,128.748545 213.387455,128.748545 C214.219545,128.748545 214.586091,129.179727 214.488727,130.039636 C214.439636,130.561636 214.072273,131.320909 213.387455,132.318273 C212.701818,133.314818 212.188,133.813909 211.845182,133.813909 C211.404182,133.813909 211,133.043182 210.633455,131.502545 C210.510727,131.049273 210.289818,129.893182 209.972364,128.034273 C209.678636,126.312818 208.894818,125.507727 207.622545,125.621455 C207.083364,125.667273 206.275818,126.120545 205.199091,126.981273 C204.415273,127.639091 203.62,128.295273 202.812455,128.952273 L203.583182,129.870273 C204.317909,129.394091 204.745818,129.156 204.868545,129.156 C205.431455,129.156 205.957545,129.972545 206.446818,131.604 C206.887818,133.099636 207.328818,134.596091 207.769,136.091727 C208.430091,137.723182 209.237636,138.538909 210.192455,138.538909 C211.734727,138.538909 213.619818,137.202 215.847727,134.528182 C218.001182,131.967273 219.115545,129.949636 219.189182,128.476091 C219.286545,126.505091 218.491273,125.497091 216.801727,125.451273 L216.801727,125.451273 Z M211,114 C201.059091,114 193,122.059091 193,132 C193,141.940909 201.059091,150 211,150 C220.940909,150 229,141.940909 229,132 C229,122.059091 220.940909,114 211,114 L211,114 Z M211,148.363636 C201.962364,148.363636 194.636364,141.037636 194.636364,132 C194.636364,122.963182 201.962364,115.636364 211,115.636364 C220.037636,115.636364 227.363636,122.963182 227.363636,132 C227.363636,141.037636 220.037636,148.363636 211,148.363636 L211,148.363636 Z" id="vimeo" sketch:type="MSShapeGroup"></path>
        </g>
    </g>
</svg>