<?xml version="1.0" encoding="UTF-8" standalone="no"?>
<svg width="36px" height="36px" viewBox="0 0 36 36" version="1.1" xmlns="http://www.w3.org/2000/svg" xmlns:xlink="http://www.w3.org/1999/xlink" xmlns:sketch="http://www.bohemiancoding.com/sketch/ns">
    <!-- Generator: Sketch 3.3.3 (12072) - http://www.bohemiancoding.com/sketch -->
    <title>youtube</title>
    <desc>Created with Sketch.</desc>
    <defs></defs>
    <g id="Page-1" stroke="none" stroke-width="1" fill="none" fill-rule="evenodd" sketch:type="MSPage">
        <g id="Icons" sketch:type="MSArtboardGroup" transform="translate(-63.000000, -114.000000)" fill="#000000">
            <path d="M80.2816364,128.669182 L80.6195455,128.669182 C81.3665455,128.669182 81.972,128.067 81.972,127.324909 L81.972,125.140364 C81.972,124.398273 81.3665455,123.796909 80.6195455,123.796909 L80.2816364,123.796909 C79.5346364,123.796909 78.93,124.398273 78.93,125.140364 L78.93,127.324909 C78.93,128.067 79.5346364,128.669182 80.2816364,128.669182 L80.2816364,128.669182 Z M79.9437273,125.056909 C79.9437273,124.778727 80.1703636,124.552091 80.451,124.552091 C80.7308182,124.552091 80.9574545,124.778727 80.9574545,125.056909 L80.9574545,127.409182 C80.9574545,127.686545 80.7308182,127.913182 80.451,127.913182 C80.1703636,127.913182 79.9437273,127.686545 79.9437273,127.409182 L79.9437273,125.056909 L79.9437273,125.056909 Z M76.3101818,128.584909 L77.4932727,128.584909 L77.4932727,125.980636 L78.8449091,122.284091 L77.7460909,122.284091 L76.9017273,124.720636 L76.0565455,122.284091 L74.8734545,122.284091 L76.3101818,125.980636 L76.3101818,128.584909 L76.3101818,128.584909 Z M83.6615455,128.669182 C84.3381818,128.669182 84.9297273,128.080909 84.9297273,128.080909 L84.9297273,128.584909 L85.9434545,128.584909 L85.9434545,123.796909 L84.9297273,123.796909 L84.9297273,127.492636 C84.9297273,127.492636 84.5918182,127.913182 84.2539091,127.913182 C83.9151818,127.913182 83.9151818,127.660364 83.9151818,127.660364 L83.9151818,123.796909 L82.9014545,123.796909 L82.9014545,127.996636 C82.9014545,127.996636 82.9857273,128.669182 83.6615455,128.669182 L83.6615455,128.669182 Z M81,114 C71.0590909,114 63,122.059091 63,132 C63,141.940909 71.0590909,150 81,150 C90.9409091,150 99,141.940909 99,132 C99,122.059091 90.9409091,114 81,114 L81,114 Z M81,148.363636 C71.9631818,148.363636 64.6363636,141.037636 64.6363636,132 C64.6363636,122.963182 71.9631818,115.636364 81,115.636364 C90.0376364,115.636364 97.3636364,122.963182 97.3636364,132 C97.3636364,141.037636 90.0376364,148.363636 81,148.363636 L81,148.363636 Z M82.9857273,134.150182 C82.7664545,134.150182 82.5954545,134.279455 82.4792727,134.405455 L82.4792727,137.793545 C82.5848182,137.908091 82.7451818,138.017727 82.9857273,138.017727 C83.493,138.017727 83.493,137.454 83.493,137.454 L83.493,134.713091 C83.493,134.713091 83.4087273,134.150182 82.9857273,134.150182 L82.9857273,134.150182 Z M86.8729091,134.150182 C86.3664545,134.150182 86.3664545,134.713091 86.3664545,134.713091 L86.3664545,135.438818 L87.3801818,135.438818 L87.3801818,134.713091 C87.3801818,134.713091 87.3801818,134.150182 86.8729091,134.150182 L86.8729091,134.150182 Z M87.2116364,129.717273 C87.2116364,129.717273 84.1115455,129.556909 81,129.556909 C77.8999091,129.556909 74.7891818,129.717273 74.7891818,129.717273 C73.3884545,129.717273 72.2536364,130.799727 72.2536364,132.135 C72.2536364,132.135 72,133.702636 72,135.278455 C72,136.846091 72.2536364,138.421091 72.2536364,138.421091 C72.2536364,139.757182 73.3884545,140.838818 74.7891818,140.838818 C74.7891818,140.838818 77.8418182,141 81,141 C84.0501818,141 87.2116364,140.838818 87.2116364,140.838818 C88.6115455,140.838818 89.7463636,139.757182 89.7463636,138.421091 C89.7463636,138.421091 90,136.833818 90,135.278455 C90,133.690364 89.7463636,132.135 89.7463636,132.135 C89.7463636,130.799727 88.6115455,129.717273 87.2116364,129.717273 L87.2116364,129.717273 Z M77.3239091,132.457364 L76.0565455,132.457364 L76.0565455,138.824455 L74.8734545,138.824455 L74.8734545,132.457364 L73.6052727,132.457364 L73.6052727,131.409273 L77.3239091,131.409273 L77.3239091,132.457364 L77.3239091,132.457364 Z M80.5352727,138.824455 L79.5207273,138.824455 L79.5207273,138.340909 C79.5207273,138.340909 78.93,138.905455 78.2533636,138.905455 C77.5775455,138.905455 77.4932727,138.259909 77.4932727,138.259909 L77.4932727,133.263273 L78.507,133.263273 L78.507,137.937545 C78.507,137.937545 78.507,138.179727 78.8449091,138.179727 C79.1828182,138.179727 79.5207273,137.776364 79.5207273,137.776364 L79.5207273,133.263273 L80.5352727,133.263273 L80.5352727,138.824455 L80.5352727,138.824455 Z M84.5067273,137.615182 C84.5067273,137.615182 84.5067273,138.905455 83.5772727,138.905455 C83.0086364,138.905455 82.6625455,138.602727 82.4792727,138.368727 L82.4792727,138.824455 L81.3804545,138.824455 L81.3804545,131.409273 L82.4792727,131.409273 L82.4792727,133.813909 C82.647,133.636364 83.061,133.263273 83.5772727,133.263273 C84.2539091,133.263273 84.5067273,133.827 84.5067273,134.552727 L84.5067273,137.615182 L84.5067273,137.615182 Z M88.479,134.633727 L88.479,136.245545 L86.3664545,136.245545 L86.3664545,137.454 C86.3664545,137.454 86.3664545,138.017727 86.8729091,138.017727 C87.3801818,138.017727 87.3801818,137.454 87.3801818,137.454 L87.3801818,136.890273 L88.479,136.890273 L88.479,137.776364 C88.479,137.776364 88.3096364,138.905455 86.958,138.905455 C85.6055455,138.905455 85.3519091,137.776364 85.3519091,137.776364 L85.3519091,134.633727 C85.3519091,134.633727 85.3519091,133.263273 86.958,133.263273 C88.5632727,133.263273 88.479,134.633727 88.479,134.633727 L88.479,134.633727 Z" id="youtube" sketch:type="MSShapeGroup"></path>
        </g>
    </g>
</svg>